<?xml version="1.0" encoding="utf-8"?>
<!-- Generator: Adobe Illustrator 20.1.0, SVG Export Plug-In . SVG Version: 6.00 Build 0)  -->
<svg version="1.1" id="Lager_1" xmlns="http://www.w3.org/2000/svg" xmlns:xlink="http://www.w3.org/1999/xlink" x="0px" y="0px"
	 viewBox="0 0 56 42" style="enable-background:new 0 0 56 42;" xml:space="preserve">
<style type="text/css">
	.st0{fill:#FFFFFF;}
</style>
<g>
	<path class="st0" d="M34.4,2c1,0,1.9,0.5,2.5,1.3l2.7,4.3c0.6,0.8,1.5,1.3,2.5,1.3H51c1.7,0,3,1.3,3,3v25c0,1.7-1.3,3-3,3H5
		c-1.7,0-3-1.3-3-3v-25c0-1.7,1.3-3,3-3h8.9c1,0,1.9-0.5,2.5-1.3l2.7-4.3C19.7,2.5,20.6,2,21.6,2L34.4,2 M34.4,0H21.6
		c-1.7,0-3.2,0.8-4.2,2.2l-2.7,4.4C14.5,6.9,14.2,7,13.9,7H5c-2.8,0-5,2.2-5,5v25c0,2.8,2.2,5,5,5h46c2.8,0,5-2.2,5-5V12
		c0-2.8-2.2-5-5-5h-8.9c-0.3,0-0.6-0.2-0.8-0.4l-2.7-4.3C37.6,0.8,36.1,0,34.4,0L34.4,0z"/>
	<path class="st0" d="M41,22c-0.3-6.7-5.7-12-12.5-12c-3.3,0-6.2,1.3-8.5,3.3l2.1,2.1c1.7-1.5,3.9-2.4,6.3-2.4c5.1,0,9.2,4,9.5,9
		h-3.5l5,6.2l5-6.2C44.4,22,41,22,41,22z"/>
	<path class="st0" d="M28.5,32c-5,0-9.1-3.9-9.4-8.8h3.4l-5-6.2l-5,6.2H16C16.4,29.8,21.8,35,28.5,35c3.3,0,6.2-1.3,8.5-3.3
		l-2.1-2.1C33.2,31.1,31,32,28.5,32z"/>
</g>
</svg>
