<?xml version="1.0" encoding="utf-8"?>
<!-- Generator: Adobe Illustrator 20.1.0, SVG Export Plug-In . SVG Version: 6.00 Build 0)  -->
<svg version="1.1" id="Lager_1" xmlns="http://www.w3.org/2000/svg" xmlns:xlink="http://www.w3.org/1999/xlink" x="0px" y="0px"
	 viewBox="0 0 56 42" style="enable-background:new 0 0 56 42;" xml:space="preserve">
<style type="text/css">
	.st0{fill:#E7285A;}
	.st1{fill:none;}
	.st2{font-family:'Helvetica-Bold';}
	.st3{font-size:18px;}
</style>
<g>
	<path class="st0" d="M34.4,2c1,0,1.9,0.5,2.5,1.3l2.7,4.3c0.6,0.8,1.5,1.3,2.5,1.3H51c1.7,0,3,1.3,3,3v25c0,1.7-1.3,3-3,3H5
		c-1.7,0-3-1.3-3-3v-25c0-1.7,1.3-3,3-3h8.9c1,0,1.9-0.5,2.5-1.3l2.7-4.3C19.7,2.5,20.6,2,21.6,2L34.4,2 M34.4,0H21.7
		c-1.7,0-3.2,0.8-4.2,2.2l-2.7,4.4C14.6,6.9,14.3,7,14,7H5c-2.8,0-5,2.2-5,5v25c0,2.8,2.2,5,5,5h46c2.8,0,5-2.2,5-5V12
		c0-2.8-2.2-5-5-5h-8.9c-0.3,0-0.6-0.2-0.8-0.4l-2.7-4.3C37.7,0.8,36.1,0,34.4,0L34.4,0z"/>
	<rect x="9.2" y="16.6" class="st1" width="37.8" height="15.3"/>
	<text transform="matrix(1 0 0 1 9.214 29.5368)" class="st0 st2 st3">OFF</text>
</g>
</svg>
