<?xml version="1.0" encoding="utf-8"?>
<!-- Generator: Adobe Illustrator 20.1.0, SVG Export Plug-In . SVG Version: 6.00 Build 0)  -->
<svg version="1.1" id="Lager_1" xmlns="http://www.w3.org/2000/svg" xmlns:xlink="http://www.w3.org/1999/xlink" x="0px" y="0px"
	 viewBox="0 0 313.1 90.3" style="enable-background:new 0 0 313.1 90.3;" xml:space="preserve">
<style type="text/css">
	.st0{fill:#FFFFFF;}
	.st1{fill:#E7285A;}
</style>
<g>
	<g>
		<path class="st0" d="M265.7,28.2c4.4-3.6,3.6-10-8-5.3C260.7,26.4,260.1,32.8,265.7,28.2z"/>
		<path class="st0" d="M312.2,45.8c-2.3,2-18.4,18.2-22.7,17.3c-2.5-0.5-1.9-7.3-0.7-9.7c11.9-2.4,16.3-10.5,16.5-14.5
			c0.2-4-7.9-7.1-11.5-7.1c-5,0-12.3,13.9-13.8,24.2c-3,3.3-5.7,6.1-6.6,6.1c-1.8-3.4,16.9-50.6,17.3-50.9c1.4-1.3,0.7-3.1-1.2-3.1
			c-3,0-8.1,1.5-9.4,4c-2.1,3.8-10.8,26.3-14,42.2c-3.7,4.1-7.6,8.2-8.7,8.2c-1.9-3.4,8.6-27.1,8.9-27.4c0.7-0.6,0.9-1.2,0.7-2.1
			c-0.2-0.8-1-1.1-1.9-1.1c-3,0-8.1,1.4-9.3,3.9c-1.5,2.9-4.3,11.5-5.8,19.3c-3.6,3.9-7.2,7.6-8.3,7.6c-1.9-3.4,7.3-24,7.7-24.4
			c2.2-3.1-5.9-6.3-7.7-6.4c-2.6-0.2-6.1,3.1-9,5.8c4.4-13.2,9.1-25.5,10.8-26.8c1.9-1.6,0.8-3-1.2-2.9c-3.8,0.1-8.1,1.5-10.1,4
			c-1.4,1.7-5.5,14.4-8.9,27.4c-1.5,0.5-3,1.1-4.4,1.4c0.7-1.6,1.9-4.9,2.6-6.2c0.3-0.7,0.8-0.7,1-1.3c0.1-0.2-0.2-1.2-1-1.2h-1
			c-7.5,0-15.6,15.1-6.5,12.7c-4.4,9-9.8,18.8-11.7,18.1c-2.5-3.4,4.5-27.3,4.9-27.7c0.5-0.6,0.7-1.2,0.3-2.1
			c-0.4-0.8-1.2-1.2-2.1-1.2c-3,0-7.3,2.3-8.2,4c-0.6,1-1.4,4.6-2.1,9.1c-4.3,8.8-9.5,18.6-11.4,17.9c-2.4-3.4,4.5-27.3,4.9-27.7
			c0.5-0.6,0.7-1.2,0.3-2.1c-0.4-0.8-1.2-1.2-2.1-1.2c-2.9,0-7.3,2.3-8.2,4c-0.8,1.5-2.3,8.9-2.9,16.4c-4.3,4.8-9.6,10.5-10.9,10.5
			c-1.9-3.4,7.3-24,7.7-24.4c2.2-3.1-5.9-6.3-7.7-6.4c-2.4-0.2-5.8,2.8-8.6,5.3c0.4-1.4,1.2-2.8,1.2-2.9c1.2-1.1,0.7-2.5-0.8-2.5
			c-3,0-7.7,1.4-9,3.9c0.5,0.2-2.3,7.5-4.4,15.2c-3.4,4.5-7.5,10.1-8.9,10.1c-2-0.2,6.7-24.2,8.6-26.1c1.6-1.5,0.2-3.2-1.6-3.1
			c-2.3,0-5.3,0-7.7,1.9c-2.6-0.7-7.7-2.5-11.1-1.9c-5.3,0.9-10.2,10.7-12.6,19.7C104,56.9,96,63.7,93.2,63.1
			c-2.5-0.5-1.9-7.3-0.7-9.7c11.9-2.4,16.3-10.5,16.5-14.5c0.2-4-7.9-7.1-11.5-7.1c-5.3,0-13.1,15.4-13.9,25.8
			c-3.8,4.2-7.3,7.9-8.8,7.9C72,60.6,97.9,5.2,98.5,4.7c0.9-0.9,1.2-1.8,1-3.1C99,0.5,98,0,96.6,0C92.5,0,85.4,1.9,83,5.3
			c-9,6.3-16.9,17-22.5,25.3C65.7,18.4,71.8,5.9,73.7,4.2C74,4,74.2,3.7,74.2,3.5c1.9-1.9-0.8-3.4-2.5-3.4c-4.7,0-9.7,2.8-12.4,6.1
			v0.2C51.1,14,42.6,27.5,36,39.7c2.1-7.7,4-13.8,4.3-14.8l3.3-10.5c0.8-2.3,4-10.2,4.1-10.3c2.1-2.1,0.5-4.1-2-4.1h-0.4
			c-4.1,0.2-9.9,3.4-12,6.1v0.4c-0.2,0.2-0.4,0.7-0.7,1.3C19.8,17.1,5.4,35.2,1.7,43.4c-1.7,3.9-4.2,12.8,4.9,15.5
			c0.6-6.2,10.5-24.3,21.9-38.5c-1.8,6.5-18.4,59.7-4.3,59.7c3,0.1,6.5-2.3,7.2-5.3c0.2-1.4-0.3-1.5-0.9-1.1
			c-2.1,1.7-1.8-2.9-0.4-9.9C34.2,52.7,42.3,35.8,51,23c-5.4,12.7-10.9,29-7.5,35.5c1,2,2.6,2.8,4.4,2.9c3,0.1,6.5-2.4,7.2-5.4
			c0.2-1.4-0.3-1.4-0.8-1c-2.1,1.6-1.9-1.1-0.5-5.9c5.3-10.1,16-26.2,25.9-36c-7.7,18.7-23.7,63-13.2,62.6
			C70.8,76,77.1,70,83.8,62.3c0.1,0.4,0.2,0.7,0.3,1.1c2,6.2,6.1,6.7,7.6,6.3c4.6,0,11.3-6.5,17-12.9c-0.4,2.6-0.6,4.9-0.4,6.7
			c0.4,3.8,2.6,6.5,7.6,6.3c3-0.1,6-4,8.7-6.9c-0.4,5.6,0,6.6,3.8,6.9c2.8,0.2,8.5-6.1,13.1-12.1c-1.5,7.9-1,14.4,5.8,12.2
			c1.2-0.4,2.1-1.3,1.6-1.6c-2.1-1.9,3.2-16.8,4.6-20.4c1.3-3.1,6.9-10.5,9.7-10.9c-3.1,6.3-10.9,32.3-3.8,33
			c3.6,0.3,9.1-5.4,14.7-12.2c0.1-0.1,0.6-0.7,1.2-1.4c-0.2,6.9,0.7,13.1,4.1,13.6c4.9,0.7,10.1-6.7,14.6-15.5
			c-0.4,7.7,0.4,14.9,4.1,15.5c7.1,1.2,14.6-14.5,19.7-26.4c1.5-0.4,3.2-1,4.8-1.6c-3,11.6-5.3,22.7-4.7,25.8
			c0.6,2.7,4.3,2.9,6.6,2.1c1.2-0.4,2.1-1.3,1.6-1.6c-2.1-1.9,3.1-16.8,4.6-20.4c1.2-3.1,6.8-10.5,9.6-10.9
			c-3.1,6.3-10.9,32.3-3.8,33c3.2,0.3,7.8-4.1,12.8-9.8c-0.6,5.4-0.2,9.5,2.5,9.7c3.4,0.3,8.3-4.6,13.6-10.8
			c-0.7,5.4-0.5,9.5,1.4,10.8c4,1.5,8.2-3,13.1-8.8c0.1,0.9,0.2,1.8,0.5,2.6c2,6.2,6.1,6.7,7.6,6.3c7.2,0,19.3-15.6,25-22.4
			C313.3,46.8,313.1,45.8,312.2,45.8z M299,36.6c1.9,3.2-1.1,11.5-8.5,13.5C293.1,45.2,296.9,39.2,299,36.6z M102.6,36.6
			c1.9,3.2-1.1,11.5-8.5,13.5c0,0,0-0.1,0.1-0.1c0.6-0.8,1.1-1.4,1.2-1.7c0-0.1,0.1-0.3,0.1-0.5C97.9,43.4,100.9,38.8,102.6,36.6z
			 M125.3,56.5c-2.1,4.9-6.3,8-7.9,8.3c-3.6,0.7,4.8-32.9,13.8-27.7C129.9,40.2,126.4,50.9,125.3,56.5z M216.4,39.2
			c-0.3,0.7-0.7,1.3-0.9,2c-0.7,0.6-1.1,0.7-1.3,0.6c-1.2-0.2-0.4-2,0.2-3c1-1.6,3-2.6,3.3-2.6C217.2,37.1,216.8,38.1,216.4,39.2z"
			/>
	</g>
	<g>
		<path class="st0" d="M117.8,85.5c0.1,0.7,0.2,1.2,0.4,1.7c0.2,0.5,0.5,0.8,0.9,1.1c0.4,0.3,0.8,0.5,1.3,0.6c0.5,0.1,1,0.2,1.6,0.2
			c0.7,0,1.2-0.1,1.7-0.2c0.5-0.2,0.9-0.4,1.2-0.7c0.3-0.3,0.5-0.6,0.7-1c0.1-0.4,0.2-0.8,0.2-1.2c0-0.6-0.1-1-0.4-1.4
			c-0.3-0.4-0.6-0.6-1-0.9c-0.4-0.2-0.9-0.4-1.4-0.5c-0.5-0.1-1.1-0.3-1.7-0.4c-0.6-0.1-1.1-0.3-1.7-0.5s-1-0.4-1.4-0.7
			c-0.4-0.3-0.8-0.7-1-1.2c-0.3-0.5-0.4-1.1-0.4-1.8c0-0.5,0.1-1,0.3-1.5c0.2-0.5,0.5-0.9,0.9-1.3c0.4-0.4,0.9-0.7,1.6-0.9
			c0.6-0.2,1.4-0.3,2.2-0.3c0.8,0,1.6,0.1,2.2,0.3c0.6,0.2,1.1,0.6,1.6,1c0.4,0.4,0.7,0.9,0.9,1.4c0.2,0.5,0.3,1.1,0.3,1.7h-1.3
			c0-0.6-0.1-1-0.3-1.5c-0.2-0.4-0.5-0.7-0.8-1c-0.3-0.3-0.7-0.5-1.2-0.6c-0.4-0.1-0.9-0.2-1.4-0.2c-0.7,0-1.3,0.1-1.8,0.3
			c-0.5,0.2-0.9,0.5-1.2,0.8c-0.3,0.3-0.5,0.7-0.6,1c-0.1,0.4-0.1,0.8-0.1,1.2c0.1,0.5,0.3,0.9,0.6,1.2c0.3,0.3,0.7,0.5,1.1,0.7
			c0.4,0.2,0.9,0.3,1.5,0.5c0.5,0.1,1.1,0.2,1.6,0.4c0.5,0.1,1.1,0.3,1.6,0.5c0.5,0.2,1,0.4,1.4,0.7c0.4,0.3,0.7,0.7,1,1.2
			c0.2,0.5,0.4,1.1,0.4,1.8c0,1.4-0.5,2.4-1.4,3.2c-0.9,0.8-2.3,1.1-4,1.1c-0.8,0-1.5-0.1-2.1-0.3c-0.7-0.2-1.2-0.5-1.7-0.9
			c-0.5-0.4-0.9-0.9-1.1-1.5c-0.3-0.6-0.4-1.3-0.4-2.1H117.8z"/>
		<path class="st0" d="M129.6,90V75.1h1.2v5.6c0.5-0.5,1-0.9,1.5-1.3c0.5-0.3,1.2-0.5,1.9-0.5c0.7,0,1.3,0.1,1.8,0.3
			c0.6,0.2,1,0.6,1.4,1.2c0.3,0.4,0.4,0.8,0.5,1.2c0,0.4,0.1,0.8,0.1,1.3v7h-1.2v-7c0-1-0.2-1.7-0.6-2.2c-0.4-0.5-1.1-0.7-2.1-0.7
			c-0.4,0-0.7,0.1-1,0.2c-0.3,0.1-0.6,0.3-0.9,0.5c-0.3,0.2-0.5,0.4-0.6,0.7c-0.2,0.2-0.3,0.5-0.4,0.8c-0.1,0.3-0.2,0.7-0.2,1
			c0,0.3,0,0.7,0,1V90H129.6z"/>
		<path class="st0" d="M145.9,83.7c0.2,0,0.5-0.1,0.8-0.1c0.3-0.1,0.6-0.1,0.8-0.2c0.2-0.1,0.3-0.3,0.4-0.5s0.1-0.4,0.1-0.6
			c0-0.6-0.2-1.1-0.6-1.6c-0.4-0.4-1.1-0.6-2-0.6c-0.4,0-0.8,0-1.2,0.1c-0.4,0.1-0.7,0.2-0.9,0.4c-0.3,0.2-0.5,0.4-0.7,0.7
			c-0.2,0.3-0.3,0.7-0.3,1.2H141c0-0.6,0.2-1.2,0.4-1.6c0.2-0.4,0.6-0.8,1-1.1c0.4-0.3,0.8-0.5,1.4-0.6c0.5-0.1,1.1-0.2,1.6-0.2
			c0.5,0,1,0.1,1.5,0.2c0.5,0.1,0.9,0.3,1.2,0.6c0.3,0.3,0.6,0.6,0.8,1c0.2,0.4,0.3,0.9,0.3,1.6v5.8c0,0.5,0.1,0.8,0.3,0.9
			c0.2,0.1,0.5,0.1,1-0.1v1c-0.1,0-0.2,0.1-0.4,0.1c-0.2,0.1-0.4,0.1-0.5,0.1c-0.2,0-0.4,0-0.6-0.1c-0.2,0-0.4-0.1-0.5-0.2
			c-0.1-0.1-0.2-0.2-0.3-0.4c-0.1-0.1-0.1-0.3-0.2-0.5c0-0.2,0-0.4,0-0.5c-0.5,0.6-1.1,1-1.8,1.3c-0.7,0.3-1.4,0.5-2.2,0.5
			c-0.5,0-0.9-0.1-1.3-0.2c-0.4-0.1-0.8-0.3-1.1-0.6c-0.3-0.3-0.6-0.6-0.8-1c-0.2-0.4-0.3-0.8-0.3-1.3c0-1.8,1.2-2.9,3.7-3.2
			L145.9,83.7z M148,84.4c-0.5,0.2-1,0.4-1.6,0.4c-0.5,0.1-1.1,0.1-1.6,0.2c-0.9,0.1-1.7,0.3-2.2,0.6c-0.5,0.4-0.8,0.9-0.8,1.6
			c0,0.3,0.1,0.6,0.2,0.9c0.1,0.2,0.3,0.4,0.5,0.6c0.2,0.2,0.5,0.3,0.7,0.3c0.3,0.1,0.6,0.1,0.9,0.1c0.5,0,1-0.1,1.4-0.2
			c0.5-0.1,0.9-0.3,1.2-0.6c0.4-0.3,0.7-0.6,0.9-1c0.2-0.4,0.3-0.9,0.3-1.4V84.4z"/>
		<path class="st0" d="M153.8,90h-1.2V79.3h1.2v2h0c0.3-0.9,0.8-1.4,1.3-1.8c0.5-0.3,1.3-0.5,2.1-0.5v1.3c-0.7,0-1.3,0.1-1.7,0.3
			c-0.5,0.2-0.8,0.5-1.1,0.9c-0.3,0.4-0.5,0.9-0.6,1.4c-0.1,0.5-0.2,1.1-0.2,1.7V90z"/>
		<path class="st0" d="M160.1,84.9c0,0.6,0.1,1.1,0.2,1.6c0.2,0.5,0.4,1,0.7,1.3c0.3,0.4,0.7,0.7,1.1,0.9c0.5,0.2,1,0.3,1.6,0.3
			c0.8,0,1.5-0.2,2.1-0.6c0.6-0.4,1-1,1.2-1.8h1.4c-0.2,0.5-0.3,1-0.6,1.4c-0.2,0.4-0.6,0.8-0.9,1.1c-0.4,0.3-0.8,0.6-1.3,0.8
			c-0.5,0.2-1.1,0.3-1.8,0.3c-0.9,0-1.6-0.1-2.2-0.4c-0.6-0.3-1.1-0.7-1.5-1.2c-0.4-0.5-0.7-1.1-0.9-1.8c-0.2-0.7-0.3-1.4-0.3-2.2
			c0-0.8,0.1-1.5,0.3-2.2c0.2-0.7,0.5-1.3,1-1.8c0.4-0.5,0.9-0.9,1.5-1.2c0.6-0.3,1.3-0.4,2.1-0.4c1.5,0,2.6,0.5,3.5,1.5
			c0.8,1,1.2,2.5,1.2,4.4H160.1z M167,83.9c0-0.5-0.1-1-0.2-1.5c-0.1-0.5-0.4-0.9-0.6-1.2c-0.3-0.3-0.6-0.6-1.1-0.8
			c-0.4-0.2-0.9-0.3-1.5-0.3c-0.5,0-1,0.1-1.5,0.3c-0.4,0.2-0.8,0.5-1.1,0.8c-0.3,0.3-0.5,0.7-0.7,1.2c-0.2,0.5-0.3,0.9-0.4,1.4H167
			z"/>
		<path class="st0" d="M180.2,90c-0.2,0-0.3,0.1-0.6,0.1c-0.2,0.1-0.5,0.1-0.8,0.1c-0.6,0-1.1-0.2-1.4-0.5c-0.3-0.3-0.5-0.9-0.5-1.7
			v-7.8h-1.5v-1h1.5v-3h1.2v3h2v1h-2v7.3c0,0.3,0,0.5,0,0.7c0,0.2,0.1,0.4,0.1,0.5c0.1,0.1,0.2,0.2,0.3,0.3c0.1,0.1,0.3,0.1,0.6,0.1
			c0.2,0,0.3,0,0.5,0c0.2,0,0.3-0.1,0.5-0.1V90z"/>
		<path class="st0" d="M182.2,90V75.1h1.2v5.6c0.5-0.5,1-0.9,1.5-1.3c0.5-0.3,1.2-0.5,1.9-0.5c0.7,0,1.3,0.1,1.8,0.3
			c0.6,0.2,1,0.6,1.4,1.2c0.3,0.4,0.4,0.8,0.5,1.2c0,0.4,0.1,0.8,0.1,1.3v7h-1.2v-7c0-1-0.2-1.7-0.6-2.2c-0.4-0.5-1.1-0.7-2.1-0.7
			c-0.4,0-0.7,0.1-1,0.2s-0.6,0.3-0.9,0.5c-0.3,0.2-0.5,0.4-0.6,0.7c-0.2,0.2-0.3,0.5-0.4,0.8c-0.1,0.3-0.2,0.7-0.2,1
			c0,0.3,0,0.7,0,1V90H182.2z"/>
		<path class="st0" d="M194.4,84.9c0,0.6,0.1,1.1,0.2,1.6c0.2,0.5,0.4,1,0.7,1.3c0.3,0.4,0.7,0.7,1.1,0.9c0.5,0.2,1,0.3,1.6,0.3
			c0.8,0,1.5-0.2,2.1-0.6c0.6-0.4,1-1,1.2-1.8h1.4c-0.2,0.5-0.3,1-0.6,1.4c-0.2,0.4-0.6,0.8-0.9,1.1c-0.4,0.3-0.8,0.6-1.3,0.8
			c-0.5,0.2-1.1,0.3-1.8,0.3c-0.9,0-1.6-0.1-2.2-0.4c-0.6-0.3-1.1-0.7-1.5-1.2c-0.4-0.5-0.7-1.1-0.9-1.8c-0.2-0.7-0.3-1.4-0.3-2.2
			c0-0.8,0.1-1.5,0.3-2.2s0.5-1.3,1-1.8c0.4-0.5,0.9-0.9,1.5-1.2c0.6-0.3,1.3-0.4,2.1-0.4c1.5,0,2.6,0.5,3.5,1.5
			c0.8,1,1.2,2.5,1.2,4.4H194.4z M201.4,83.9c0-0.5-0.1-1-0.2-1.5c-0.1-0.5-0.4-0.9-0.6-1.2c-0.3-0.3-0.6-0.6-1.1-0.8
			c-0.4-0.2-0.9-0.3-1.5-0.3c-0.5,0-1,0.1-1.5,0.3c-0.4,0.2-0.8,0.5-1.1,0.8c-0.3,0.3-0.5,0.7-0.7,1.2c-0.2,0.5-0.3,0.9-0.4,1.4
			H201.4z"/>
		<path class="st0" d="M211.9,90h-1.2V79.3h1.2v1.6h0c0.3-0.6,0.8-1.1,1.4-1.4s1.2-0.5,1.9-0.5c0.5,0,0.9,0.1,1.3,0.2
			c0.3,0.1,0.6,0.3,0.9,0.4c0.2,0.2,0.4,0.4,0.6,0.6c0.2,0.2,0.3,0.5,0.4,0.8c0.4-0.7,0.8-1.2,1.4-1.6c0.6-0.3,1.3-0.5,2-0.5
			c0.7,0,1.3,0.1,1.7,0.4c0.4,0.2,0.8,0.6,1,0.9c0.2,0.4,0.4,0.8,0.5,1.3c0.1,0.5,0.1,1,0.1,1.6V90h-1.2v-7.4c0-0.8-0.2-1.4-0.5-1.8
			c-0.3-0.4-0.9-0.7-1.8-0.7c-0.5,0-0.9,0.1-1.3,0.3c-0.4,0.2-0.8,0.5-1.1,0.9c-0.1,0.2-0.3,0.4-0.3,0.6c-0.1,0.2-0.2,0.5-0.2,0.8
			c-0.1,0.3-0.1,0.5-0.1,0.8c0,0.3,0,0.5,0,0.7V90h-1.2v-7.4c0-0.8-0.2-1.4-0.5-1.8c-0.3-0.4-0.9-0.7-1.8-0.7
			c-0.5,0-0.9,0.1-1.3,0.3c-0.4,0.2-0.8,0.5-1.1,0.9c-0.1,0.2-0.3,0.4-0.3,0.6c-0.1,0.2-0.2,0.5-0.2,0.8c-0.1,0.3-0.1,0.5-0.1,0.8
			c0,0.3,0,0.5,0,0.7V90z"/>
		<path class="st0" d="M232.2,90.2c-0.7,0-1.3-0.1-1.9-0.4s-1.1-0.6-1.6-1c-0.4-0.5-0.8-1-1.1-1.7c-0.3-0.7-0.4-1.5-0.4-2.4
			c0-0.8,0.1-1.5,0.3-2.2c0.2-0.7,0.5-1.3,0.9-1.8c0.4-0.5,0.9-0.9,1.5-1.2c0.6-0.3,1.3-0.4,2.2-0.4c0.8,0,1.6,0.1,2.2,0.4
			c0.6,0.3,1.1,0.7,1.5,1.2c0.4,0.5,0.7,1.1,0.9,1.8c0.2,0.7,0.3,1.4,0.3,2.2c0,0.9-0.1,1.6-0.3,2.3c-0.2,0.7-0.6,1.3-1,1.8
			c-0.4,0.5-1,0.9-1.6,1.1S232.9,90.2,232.2,90.2z M235.8,84.6c0-0.6-0.1-1.2-0.2-1.8c-0.1-0.5-0.4-1-0.6-1.4
			c-0.3-0.4-0.7-0.7-1.1-1c-0.5-0.2-1-0.3-1.7-0.3c-0.6,0-1.2,0.1-1.7,0.4c-0.5,0.3-0.8,0.6-1.1,1c-0.3,0.4-0.5,0.9-0.6,1.4
			c-0.1,0.5-0.2,1.1-0.2,1.7c0,0.7,0.1,1.3,0.2,1.8c0.2,0.6,0.4,1,0.7,1.4c0.3,0.4,0.7,0.7,1.1,0.9c0.5,0.2,1,0.3,1.6,0.3
			c0.6,0,1.2-0.1,1.7-0.4c0.5-0.3,0.8-0.6,1.1-1c0.3-0.4,0.5-0.9,0.6-1.4C235.7,85.8,235.8,85.2,235.8,84.6z"/>
		<path class="st0" d="M240.4,90h-1.2V79.3h1.2v1.6h0c0.3-0.6,0.8-1.1,1.4-1.4s1.2-0.5,1.9-0.5c0.5,0,0.9,0.1,1.3,0.2
			c0.3,0.1,0.6,0.3,0.9,0.4c0.2,0.2,0.4,0.4,0.6,0.6c0.2,0.2,0.3,0.5,0.4,0.8c0.4-0.7,0.8-1.2,1.4-1.6c0.6-0.3,1.3-0.5,2-0.5
			c0.7,0,1.3,0.1,1.7,0.4c0.4,0.2,0.8,0.6,1,0.9c0.2,0.4,0.4,0.8,0.5,1.3c0.1,0.5,0.1,1,0.1,1.6V90h-1.2v-7.4c0-0.8-0.2-1.4-0.5-1.8
			c-0.3-0.4-0.9-0.7-1.8-0.7c-0.5,0-0.9,0.1-1.3,0.3c-0.4,0.2-0.8,0.5-1.1,0.9c-0.1,0.2-0.3,0.4-0.3,0.6c-0.1,0.2-0.2,0.5-0.2,0.8
			c-0.1,0.3-0.1,0.5-0.1,0.8s0,0.5,0,0.7V90h-1.2v-7.4c0-0.8-0.2-1.4-0.5-1.8c-0.3-0.4-0.9-0.7-1.8-0.7c-0.5,0-0.9,0.1-1.3,0.3
			c-0.4,0.2-0.8,0.5-1.1,0.9c-0.1,0.2-0.3,0.4-0.3,0.6c-0.1,0.2-0.2,0.5-0.2,0.8c-0.1,0.3-0.1,0.5-0.1,0.8c0,0.3,0,0.5,0,0.7V90z"/>
		<path class="st0" d="M257.3,84.9c0,0.6,0.1,1.1,0.2,1.6c0.2,0.5,0.4,1,0.7,1.3c0.3,0.4,0.7,0.7,1.1,0.9c0.5,0.2,1,0.3,1.6,0.3
			c0.8,0,1.5-0.2,2.1-0.6c0.6-0.4,1-1,1.2-1.8h1.4c-0.2,0.5-0.3,1-0.6,1.4c-0.2,0.4-0.6,0.8-0.9,1.1c-0.4,0.3-0.8,0.6-1.3,0.8
			c-0.5,0.2-1.1,0.3-1.8,0.3c-0.9,0-1.6-0.1-2.2-0.4c-0.6-0.3-1.1-0.7-1.5-1.2c-0.4-0.5-0.7-1.1-0.9-1.8c-0.2-0.7-0.3-1.4-0.3-2.2
			c0-0.8,0.1-1.5,0.3-2.2c0.2-0.7,0.5-1.3,1-1.8c0.4-0.5,0.9-0.9,1.5-1.2c0.6-0.3,1.3-0.4,2.1-0.4c1.5,0,2.6,0.5,3.5,1.5
			c0.8,1,1.2,2.5,1.2,4.4H257.3z M264.2,83.9c0-0.5-0.1-1-0.2-1.5c-0.1-0.5-0.4-0.9-0.6-1.2c-0.3-0.3-0.6-0.6-1.1-0.8
			c-0.4-0.2-0.9-0.3-1.5-0.3c-0.5,0-1,0.1-1.5,0.3c-0.4,0.2-0.8,0.5-1.1,0.8c-0.3,0.3-0.5,0.7-0.7,1.2c-0.2,0.5-0.3,0.9-0.4,1.4
			H264.2z"/>
		<path class="st0" d="M269.2,90h-1.2V79.3h1.2v1.5c0.5-0.5,1-0.9,1.5-1.3c0.5-0.3,1.2-0.5,1.9-0.5c0.7,0,1.3,0.1,1.8,0.3
			c0.6,0.2,1,0.6,1.4,1.2c0.3,0.4,0.4,0.8,0.5,1.2s0.1,0.8,0.1,1.3v7h-1.2v-7c0-1-0.2-1.7-0.6-2.2c-0.4-0.5-1.1-0.7-2.1-0.7
			c-0.4,0-0.7,0.1-1,0.2s-0.6,0.3-0.9,0.5c-0.3,0.2-0.5,0.4-0.6,0.7c-0.2,0.2-0.3,0.5-0.4,0.8c-0.1,0.3-0.2,0.7-0.2,1
			c0,0.3,0,0.7,0,1V90z"/>
		<path class="st0" d="M283.1,90c-0.2,0-0.3,0.1-0.6,0.1c-0.2,0.1-0.5,0.1-0.8,0.1c-0.6,0-1.1-0.2-1.4-0.5c-0.3-0.3-0.5-0.9-0.5-1.7
			v-7.8h-1.5v-1h1.5v-3h1.2v3h2v1h-2v7.3c0,0.3,0,0.5,0,0.7c0,0.2,0.1,0.4,0.1,0.5c0.1,0.1,0.2,0.2,0.3,0.3c0.1,0.1,0.3,0.1,0.6,0.1
			c0.2,0,0.3,0,0.5,0c0.2,0,0.3-0.1,0.5-0.1V90z"/>
	</g>
	<circle class="st1" cx="99.3" cy="82.6" r="5.8"/>
</g>
</svg>
