<?xml version="1.0" encoding="utf-8"?>
<!-- Generator: Adobe Illustrator 20.1.0, SVG Export Plug-In . SVG Version: 6.00 Build 0)  -->
<svg version="1.1" id="Lager_1" xmlns="http://www.w3.org/2000/svg" xmlns:xlink="http://www.w3.org/1999/xlink" x="0px" y="0px"
	 viewBox="0 0 64.2 50.4" style="enable-background:new 0 0 64.2 50.4;" xml:space="preserve">
<style type="text/css">
	.st0{fill:#E7285A;}
	.st1{fill:#FFFFFF;}
	.st2{fill:none;}
	.st3{font-family:'Helvetica-Bold';}
	.st4{font-size:7.0736px;}
</style>
<g>
	<path class="st0" d="M57.5,32.8H6.7c-0.6,0-1.1-0.5-1.1-1.1V18.7c0-0.6,0.5-1.1,1.1-1.1h50.9c0.6,0,1.1,0.5,1.1,1.1v12.9
		C58.6,32.3,58.1,32.8,57.5,32.8z"/>
	<g>
		<path class="st1" d="M19.4,20.8c0,0-0.9-0.3-1.8-0.3c-0.6,0-1.1,0.1-1.5,0.3c-0.4,0.2-0.9,0.3-1.5,0.3c-0.9,0-1.8-0.2-2.1-0.3
			v-0.4c0-0.1-0.1-0.2-0.2-0.2c-0.1,0-0.2,0.1-0.2,0.2v0.5c0,0,0,0,0,0c0,0,0,0,0,0v9.3c0,0.1,0.1,0.2,0.2,0.2
			c0.1,0,0.2-0.1,0.2-0.2v-4c0.4,0.1,1.2,0.3,2.1,0.3c0.7,0,1.3-0.1,1.7-0.3c0.4-0.2,0.8-0.3,1.4-0.3c0.9,0,1.7,0.3,1.7,0.3
			c0.1,0,0.1,0,0.2,0c0,0,0.1-0.1,0.1-0.1v-5.1C19.6,20.8,19.5,20.8,19.4,20.8L19.4,20.8z M19.4,20.8"/>
	</g>
	<rect x="24.2" y="22.8" class="st2" width="30.2" height="6.2"/>
	<text transform="matrix(1 0 0 1 24.1638 27.8944)" class="st1 st3 st4">REPORT</text>
</g>
</svg>
